<?xml version="1.0" standalone="no"?>
<!DOCTYPE svg PUBLIC "-//W3C//DTD SVG 20010904//EN"
 "http://www.w3.org/TR/2001/REC-SVG-20010904/DTD/svg10.dtd">
<svg version="1.0" xmlns="http://www.w3.org/2000/svg"
 width="960.000000pt" height="960.000000pt" viewBox="0 0 960.000000 960.000000"
 preserveAspectRatio="xMidYMid meet">
<metadata>
Created by potrace 1.14, written by Peter Selinger 2001-2017
</metadata>
<g transform="translate(0.000000,960.000000) scale(0.100000,-0.100000)"
fill="#000000" stroke="none">
<path d="M1 8008 c1 -876 5 -1573 9 -1548 4 25 13 71 18 102 6 32 12 160 13
285 1 232 24 648 37 667 6 10 16 194 42 761 7 138 14 291 16 340 3 50 6 124 8
165 5 135 26 474 32 528 7 55 -13 153 -26 132 -11 -18 -47 -2 -54 23 -3 13 -1
40 5 60 8 30 15 37 34 37 18 0 25 5 25 20 0 18 -7 20 -80 20 l-80 0 1 -1592z"/>
<path d="M396 9563 c-3 -21 -8 -105 -11 -188 -9 -227 -63 -1201 -79 -1445 -8
-118 -22 -354 -30 -525 -9 -170 -21 -374 -26 -451 -6 -78 -10 -187 -10 -241 0
-55 -5 -135 -10 -179 -6 -43 -17 -225 -25 -404 -9 -179 -22 -444 -30 -590 -8
-146 -14 -314 -15 -375 0 -60 -4 -127 -9 -148 -13 -54 7 -71 73 -63 27 3 54
10 59 15 6 6 11 38 13 73 2 35 8 113 13 173 6 61 15 229 21 375 20 490 27 567
49 613 19 38 19 42 4 59 -15 17 -15 46 -5 341 7 177 18 432 26 567 25 398 46
799 57 1055 5 132 11 263 13 290 2 28 11 187 20 355 9 168 21 373 26 455 5 83
9 178 9 213 l1 62 -64 0 -64 0 -6 -37z"/>
<path d="M1325 9483 c3 -65 10 -120 14 -123 12 -7 20 -99 10 -106 -5 -3 -9 2
-9 10 0 30 -28 16 -34 -16 -10 -54 -6 -368 5 -368 5 0 9 18 9 40 0 22 5 40 10
40 6 0 10 -18 10 -40 0 -27 4 -40 14 -40 16 0 30 110 16 124 -14 14 -12 114 2
118 9 3 7 46 -9 174 -21 162 -21 170 -3 189 9 11 18 27 19 35 0 8 4 30 7 48 6
32 6 32 -31 32 l-38 0 8 -117z m25 -457 c0 -24 -17 -28 -23 -6 -3 13 0 20 9
20 8 0 14 -6 14 -14z"/>
<path d="M5495 9591 c-3 -6 -51 -24 -108 -42 -56 -18 -123 -43 -149 -56 -26
-12 -52 -23 -57 -23 -9 0 -131 -69 -141 -80 -3 -3 -18 -12 -34 -20 -16 -8 -41
-33 -55 -55 -14 -22 -34 -46 -43 -53 -23 -17 -68 -94 -68 -115 0 -22 -41 -107
-63 -132 -12 -13 -17 -30 -14 -49 3 -24 -1 -30 -26 -41 -31 -13 -57 -59 -57
-99 0 -12 -4 -26 -9 -32 -16 -16 -50 -127 -61 -199 -15 -90 -15 -326 -1 -390
20 -90 40 -123 87 -146 24 -11 41 -25 38 -30 -3 -5 -10 -7 -15 -4 -20 13 -21
-28 0 -56 12 -16 24 -42 28 -59 3 -17 10 -33 14 -36 5 -3 9 -13 9 -23 0 -11 8
-29 18 -41 l18 -22 38 38 c65 66 76 79 76 91 0 21 19 24 50 8 16 -8 30 -23 30
-33 1 -20 23 -52 38 -52 5 0 12 -6 15 -12 3 -7 22 -21 43 -32 22 -10 51 -25
66 -32 28 -15 86 -18 105 -6 7 4 10 17 6 31 -5 19 -11 22 -33 18 -14 -3 -30
-7 -36 -8 -26 -5 -55 2 -52 13 5 13 76 57 95 58 6 0 18 -6 25 -13 21 -21 50
-28 64 -16 8 6 24 9 38 5 34 -8 110 20 121 46 6 13 25 27 42 32 28 7 39 5 70
-16 83 -55 108 -65 131 -55 20 9 22 15 16 60 l-7 49 31 -16 c17 -9 40 -16 52
-16 52 0 77 -79 49 -159 -11 -30 -9 -35 19 -63 l30 -31 12 24 c7 13 31 44 54
70 23 25 51 57 63 72 13 15 29 27 37 27 8 0 35 16 61 35 46 35 65 38 65 8 0
-8 9 -27 19 -42 13 -18 21 -48 23 -86 3 -59 3 -59 37 -66 54 -11 63 -3 55 47
-7 46 3 57 26 29 18 -22 36 -19 59 11 17 21 18 30 9 52 -17 40 -35 57 -59 59
-38 3 -47 23 -11 23 29 0 32 3 32 29 0 39 10 44 46 20 42 -27 55 -24 52 12 -1
19 -12 38 -27 50 -25 20 -81 26 -81 9 0 -5 -7 -10 -15 -10 -8 0 -15 6 -15 13
0 23 35 47 69 47 51 0 85 -43 101 -128 18 -100 -3 -213 -65 -338 -44 -91 -54
-124 -35 -124 5 0 12 -16 16 -37 6 -34 19 -55 55 -92 15 -15 34 -69 46 -133 3
-15 11 -33 19 -39 8 -6 14 -28 14 -49 0 -20 6 -57 14 -82 11 -38 11 -46 -1
-54 -21 -14 -6 -74 18 -74 19 0 25 28 20 87 -1 17 2 21 14 17 9 -4 14 -13 11
-21 -4 -11 -1 -11 14 -3 11 6 23 22 26 36 5 17 9 22 14 14 4 -7 6 8 3 32 -5
39 -3 46 15 50 24 7 37 67 15 75 -15 6 -18 33 -3 33 9 0 46 -35 75 -72 6 -7
17 -29 25 -48 17 -46 39 -70 61 -70 17 0 109 86 109 102 0 4 6 8 13 8 6 1 30
23 51 50 22 28 43 50 48 50 4 0 8 7 8 15 0 8 14 24 31 34 17 11 39 30 48 43
81 121 80 119 76 167 -2 25 -4 53 -4 62 -1 9 -20 29 -43 45 -24 16 -51 36 -60
44 -25 23 -110 52 -351 122 -56 17 -62 29 -48 96 18 81 66 230 90 277 12 21
21 55 21 75 0 20 7 87 15 150 24 184 0 458 -43 507 -33 36 -68 89 -86 129 -21
48 -128 155 -173 173 -31 13 -32 14 -16 37 8 13 22 24 29 24 20 0 17 27 -3 34
-9 4 -21 2 -27 -4 -30 -30 -95 20 -96 76 0 37 -16 54 -52 54 -19 0 -48 17 -93
55 -65 56 -65 56 -90 38 -13 -10 -29 -30 -34 -45 -6 -16 -13 -28 -16 -28 -7 0
-63 39 -83 58 -7 6 -17 12 -22 12 -5 0 -21 10 -37 23 -30 25 -102 34 -134 17
-11 -7 -20 -7 -24 0 -8 13 -412 14 -420 1z m895 -161 c0 -11 -43 -14 -53 -3
-4 3 -2 12 4 19 12 15 49 2 49 -16z m-1143 -1436 l38 -37 -80 7 c-88 8 -100
14 -90 45 5 17 14 21 50 21 36 0 50 -6 82 -36z m1059 -6 c-7 -13 -19 -40 -26
-61 -10 -31 -14 -36 -26 -26 -9 7 -12 21 -7 38 14 59 22 71 48 71 24 0 25 -1
11 -22z m914 -344 c0 -28 -4 -35 -16 -32 -9 2 -22 11 -28 20 -8 14 -6 21 9 32
30 23 35 20 35 -20z m-368 -126 c-12 -12 -35 -1 -27 12 3 5 13 6 21 3 10 -4
12 -9 6 -15z m98 12 c10 0 20 -7 22 -16 2 -11 16 -17 40 -20 21 -2 48 -8 60
-15 l23 -12 -29 -10 c-20 -7 -39 -6 -61 2 -17 6 -39 11 -48 11 -24 0 -82 56
-65 63 7 3 19 4 26 1 8 -2 22 -4 32 -4z m257 -32 c-3 -8 -6 -5 -6 6 -1 11 2
17 5 13 3 -3 4 -12 1 -19z"/>
<path d="M4765 9061 c-3 -5 -1 -12 5 -16 5 -3 10 1 10 9 0 18 -6 21 -15 7z"/>
<path d="M1275 8798 c-3 -35 -11 -153 -16 -263 -5 -110 -14 -247 -19 -305 -5
-58 -12 -186 -15 -284 -3 -99 -8 -183 -12 -189 -3 -5 -9 -109 -14 -230 -13
-356 -28 -634 -38 -742 -5 -55 -13 -188 -16 -295 -4 -107 -11 -199 -16 -205
-6 -6 -139 -11 -347 -13 -186 -1 -340 -6 -345 -11 -14 -14 -2 -37 22 -44 14
-3 21 0 21 9 0 11 18 14 79 14 78 0 79 0 84 -28 3 -15 17 -40 32 -56 23 -25
31 -27 68 -22 23 3 49 6 57 6 274 -4 289 -5 304 -25 9 -11 16 -29 16 -40 0
-19 1 -19 18 1 14 19 30 23 102 27 69 3 96 10 140 33 30 16 61 34 68 41 31 30
64 35 280 44 125 5 272 13 327 19 55 6 111 11 125 10 130 -3 1047 15 1225 24
59 3 105 18 105 35 0 5 -53 7 -117 5 -65 -1 -224 -6 -353 -9 -129 -3 -352 -10
-495 -15 -143 -5 -465 -12 -715 -15 -374 -5 -464 -4 -506 7 -29 8 -75 13 -104
12 -36 -1 -53 2 -57 12 -3 7 3 55 12 106 11 61 18 161 21 293 3 197 8 245 24
255 13 8 24 160 11 160 -7 0 -11 38 -11 120 0 100 3 120 15 120 8 0 15 6 15
14 0 7 7 19 15 26 17 14 22 120 5 120 -5 0 -10 7 -10 16 0 11 6 13 19 9 28 -9
46 54 37 129 -8 62 -19 70 -35 29 -10 -24 -11 -20 -7 30 3 38 12 66 26 84 20
25 21 35 15 105 -6 68 -5 78 9 78 21 0 20 15 -3 65 -10 22 -21 52 -25 68 -5
23 -3 27 14 27 17 0 20 7 20 48 0 26 -5 53 -11 59 -7 7 -12 78 -14 192 l-3
181 24 0 c19 0 24 6 27 38 2 20 2 2 -1 -40 -2 -50 0 -78 6 -78 15 0 20 161 8
238 l-10 62 -37 0 -37 0 -7 -62z m24 -925 c1 -18 -3 -33 -9 -33 -6 0 -9 33 -9
83 2 77 2 79 9 32 5 -27 9 -65 9 -82z"/>
<path d="M5280 7805 c0 -9 5 -15 11 -13 6 2 11 8 11 13 0 5 -5 11 -11 13 -6 2
-11 -4 -11 -13z"/>
<path d="M4708 7586 c-26 -20 -22 -26 17 -26 28 0 35 4 35 20 0 23 -26 26 -52
6z"/>
<path d="M6160 7579 c0 -5 5 -7 10 -4 6 3 10 8 10 11 0 2 -4 4 -10 4 -5 0 -10
-5 -10 -11z"/>
<path d="M6190 7484 c0 -25 23 -62 41 -67 29 -8 96 4 96 17 0 6 3 21 7 34 9
26 -9 30 -19 5 -6 -16 -8 -17 -18 -2 -16 21 -107 32 -107 13z m66 -51 c-2 -2
-11 0 -20 3 -14 5 -15 9 -5 15 12 7 34 -10 25 -18z"/>
<path d="M4925 7433 c-11 -3 -24 -9 -29 -14 -6 -5 -19 -9 -30 -9 -19 0 -19 -1
2 -20 15 -14 22 -33 22 -58 1 -42 15 -66 46 -76 15 -5 28 2 51 29 17 19 38 35
47 35 22 0 75 34 92 59 21 29 9 43 -31 35 -19 -3 -49 -1 -67 4 -50 15 -81 20
-103 15z"/>
<path d="M1281 7344 c0 -11 3 -14 6 -6 3 7 2 16 -1 19 -3 4 -6 -2 -5 -13z"/>
<path d="M1305 7190 c3 -5 8 -10 11 -10 2 0 4 5 4 10 0 6 -5 10 -11 10 -5 0
-7 -4 -4 -10z"/>
<path d="M4910 7171 c0 -6 4 -12 9 -15 4 -3 21 -30 36 -61 15 -30 36 -63 46
-74 25 -27 24 -38 -3 -37 -32 1 -25 -28 15 -68 18 -17 44 -45 59 -63 23 -27
31 -30 55 -24 18 5 34 20 45 42 23 47 22 58 -8 69 -14 6 -23 14 -19 19 6 11
-12 25 -35 26 -58 5 -56 4 -37 22 16 16 36 18 133 14 26 -2 104 48 104 65 0
47 -45 74 -111 67 -26 -3 -77 2 -117 11 -78 18 -172 21 -172 7z m160 -216 c0
-2 -7 -5 -15 -9 -9 -3 -15 0 -15 9 0 9 6 12 15 9 8 -4 15 -7 15 -9z"/>
<path d="M7350 7114 c0 -8 5 -12 10 -9 6 4 8 11 5 16 -9 14 -15 11 -15 -7z"/>
<path d="M7292 7100 c-7 -11 -19 -20 -27 -20 -44 0 -105 -61 -105 -104 0 -22
21 -11 72 36 23 22 58 47 76 55 22 9 32 19 30 31 -5 24 -31 26 -46 2z"/>
<path d="M4490 7080 c-17 -18 -30 -38 -30 -45 0 -7 -3 -28 -6 -46 l-6 -34 27
35 c67 87 79 158 15 90z"/>
<path d="M6075 7050 c-3 -5 -14 -10 -24 -10 -10 0 -26 -9 -35 -19 -10 -10 -33
-22 -52 -26 -19 -3 -38 -13 -41 -21 -4 -10 -15 -12 -44 -8 -26 4 -39 3 -39 -5
0 -6 -6 -11 -14 -11 -8 0 -16 -10 -18 -22 -2 -14 -11 -24 -23 -26 -11 -2 -27
-5 -35 -8 -13 -4 -13 -6 0 -14 11 -7 3 -10 -27 -10 -30 0 -43 4 -43 14 0 7 -7
19 -15 26 -25 21 -30 -15 -6 -41 25 -27 26 -42 7 -58 -12 -10 -15 -6 -21 19
-4 16 -8 30 -10 30 -18 0 -55 -26 -55 -39 -1 -28 -26 -51 -57 -51 -39 0 -60
-22 -38 -40 21 -17 19 -30 -5 -30 -11 0 -20 5 -20 10 0 6 -11 10 -25 10 -14 0
-25 -4 -25 -9 0 -5 -12 -14 -27 -19 -16 -6 -22 -11 -15 -11 18 -1 15 -21 -4
-21 -9 0 -18 9 -21 20 -6 24 -35 26 -53 5 -7 -8 -18 -15 -24 -14 -7 0 -6 2 2
6 26 10 10 23 -28 23 -22 0 -40 5 -40 10 0 6 -7 10 -15 10 -8 0 -15 -4 -15
-10 0 -5 -11 -10 -25 -10 -14 0 -25 5 -25 11 0 6 -16 9 -39 8 -22 -2 -46 3
-55 10 -9 8 -20 10 -24 6 -4 -4 -1 -10 6 -12 6 -3 12 -11 12 -18 0 -25 -23
-65 -37 -65 -22 0 -15 -20 18 -51 30 -28 31 -28 57 -12 49 30 62 46 56 65 -7
24 4 42 19 30 22 -17 111 -33 148 -27 26 5 49 1 74 -11 57 -26 65 -48 63 -151
-1 -77 2 -96 20 -127 15 -25 22 -54 22 -89 0 -29 5 -68 11 -87 6 -19 14 -85
18 -145 8 -117 17 -140 62 -170 32 -22 30 -34 -6 -27 -17 3 -25 0 -25 -10 0
-19 20 -38 42 -38 10 0 18 -7 18 -15 0 -8 -9 -15 -20 -15 -11 0 -20 5 -20 10
0 17 -20 11 -27 -7 -4 -10 -11 -21 -17 -25 -8 -5 -7 -11 1 -19 15 -15 34 -3
26 16 -4 11 3 15 25 15 41 0 49 -16 23 -44 -12 -12 -18 -26 -14 -29 3 -4 -5
-7 -19 -7 -14 0 -28 6 -31 13 -4 11 -77 41 -77 32 0 -2 9 -20 21 -40 18 -29
18 -34 5 -29 -9 4 -24 0 -34 -8 -9 -8 -25 -18 -35 -21 -9 -4 -20 -15 -24 -24
-3 -10 -15 -29 -27 -41 l-21 -24 38 7 c55 11 107 -2 107 -25 0 -13 -9 -22 -27
-26 -49 -10 -53 -13 -53 -38 0 -19 7 -27 25 -32 30 -7 31 -15 7 -37 -16 -14
-23 -15 -45 -4 -15 6 -27 19 -27 28 0 20 -31 49 -54 49 -13 0 -16 -5 -11 -19
4 -15 2 -18 -12 -15 -12 3 -36 -14 -71 -49 l-52 -53 36 -36 c34 -35 34 -37 15
-48 -26 -14 -97 -8 -93 8 3 17 -15 15 -22 -3 -3 -8 -14 -15 -24 -15 -11 0 -26
-7 -33 -16 -12 -15 -11 -18 6 -28 10 -6 37 -28 59 -48 21 -21 43 -38 48 -38 4
0 27 27 51 60 45 64 65 75 112 62 22 -6 39 -3 73 15 25 13 52 23 61 21 24 -4
41 11 41 36 0 12 7 31 15 42 8 10 15 33 15 49 0 17 5 47 10 67 10 33 15 38 53
45 58 12 59 34 2 58 -26 10 -50 26 -56 36 -13 24 -11 33 4 22 6 -5 34 -18 60
-27 57 -21 120 -82 113 -109 -3 -13 3 -21 21 -28 15 -5 23 -15 21 -26 -6 -31
-26 -24 -49 16 -12 22 -28 42 -36 45 -17 7 -63 -22 -63 -39 0 -26 35 -75 63
-88 34 -15 34 -30 2 -55 -14 -11 -25 -25 -25 -30 0 -17 -64 -31 -110 -25 -42
6 -55 -8 -23 -26 14 -7 15 -12 4 -24 -10 -13 -9 -17 5 -25 9 -5 25 -7 35 -5
11 3 19 0 19 -6 0 -6 -6 -11 -12 -11 -7 0 -22 -7 -33 -16 -19 -14 -19 -15 3
-20 24 -7 30 -42 11 -61 -8 -8 -5 -14 11 -23 12 -7 25 -8 30 -3 11 13 103 129
126 160 11 15 29 43 39 61 11 17 23 32 27 32 4 0 8 26 8 58 1 48 5 62 29 88
15 17 42 37 60 45 39 18 40 44 4 113 -31 59 -61 96 -78 96 -7 0 -24 9 -39 21
-31 25 -37 3 -6 -24 26 -22 26 -71 -1 -98 -24 -24 -17 -39 11 -22 15 10 19 9
24 -4 4 -9 4 -18 1 -21 -3 -3 -5 0 -5 6 0 7 -4 12 -10 12 -5 0 -10 -7 -10 -15
0 -8 -3 -15 -6 -15 -15 0 -72 39 -113 78 -38 35 -44 44 -31 53 12 8 10 9 -7 4
-26 -7 -32 9 -7 19 8 3 13 10 9 16 -4 6 6 7 26 3 l33 -6 -22 30 c-26 37 -30
62 -7 43 15 -12 16 -11 19 13 1 17 44 21 62 7 19 -17 18 -44 -1 -36 -9 3 -15
0 -15 -9 0 -9 11 -14 28 -15 15 0 54 -2 87 -4 38 -3 63 0 67 7 5 7 8 3 8 -10
0 -13 9 -32 20 -43 25 -25 60 -26 60 -2 0 9 4 24 10 32 7 12 10 11 16 -5 16
-41 64 -60 64 -26 0 24 36 51 66 51 12 0 24 7 28 15 3 8 15 15 26 15 13 0 24
10 30 25 9 23 14 25 42 20 21 -3 43 0 58 9 14 8 35 20 47 25 12 5 25 16 30 25
7 13 157 103 238 144 37 18 105 82 105 98 0 7 10 14 23 16 14 2 23 11 25 25 3
17 -1 20 -17 16 -12 -3 -21 -11 -21 -18 0 -10 -8 -11 -35 -2 -32 9 -36 8 -56
-16 -18 -23 -28 -27 -75 -27 -42 0 -56 4 -61 17 -13 32 105 99 130 74 6 -6 15
-11 21 -11 5 0 0 9 -12 20 -22 21 -20 50 4 50 8 0 14 6 14 13 0 8 27 41 59 74
33 34 62 71 66 84 9 27 14 34 83 104 28 30 52 61 52 69 0 7 11 25 25 40 14 15
25 30 25 34 0 4 10 12 23 17 12 6 30 25 39 44 9 19 22 39 27 44 6 6 11 23 11
38 0 15 11 41 25 57 14 17 25 34 25 39 0 6 9 18 20 28 18 16 19 35 1 35 -4 0
-20 -20 -35 -45 -16 -24 -38 -51 -50 -59 -24 -15 -86 -124 -86 -150 0 -9 -6
-16 -12 -16 -20 0 -62 -41 -93 -90 -31 -49 -35 -55 -94 -118 -23 -24 -41 -47
-41 -51 0 -3 -8 -14 -17 -23 -10 -9 -32 -36 -50 -60 -26 -36 -42 -47 -83 -58
-31 -9 -52 -20 -56 -32 -3 -10 -13 -22 -23 -27 -25 -14 -191 -26 -191 -14 0
21 26 62 42 67 27 7 21 25 -9 32 -90 19 -129 50 -100 78 8 9 19 16 22 16 4 0
18 9 32 20 14 11 34 20 43 20 17 0 150 123 150 139 0 4 11 18 25 31 14 13 25
27 25 32 0 4 20 37 45 74 25 36 45 73 45 81 0 9 7 24 14 32 8 9 18 31 21 49 5
30 3 33 -17 30 -17 -2 -23 -9 -22 -25 1 -28 -19 -30 -46 -3 -24 24 -57 29
-230 38 -142 7 -180 19 -180 52 0 52 -65 113 -85 80z m-1011 -411 c-3 -5 -13
-9 -24 -9 -16 0 -17 3 -7 25 11 22 13 23 24 8 7 -9 10 -20 7 -24z m1188 -377
c-4 -11 -6 -11 -13 0 -5 7 -9 22 -9 32 0 19 0 19 14 1 8 -11 11 -25 8 -33z
m-667 19 c3 -5 1 -12 -5 -16 -5 -3 -10 1 -10 9 0 18 6 21 15 7z m675 -51 c0
-5 -4 -10 -10 -10 -5 0 -10 5 -10 10 0 6 5 10 10 10 6 0 10 -4 10 -10z m16
-184 c25 -19 14 -23 -98 -31 -59 -4 -88 -3 -88 4 0 6 21 11 48 11 27 0 57 6
68 15 24 18 45 19 70 1z m-206 -26 c0 -5 -7 -10 -15 -10 -8 0 -15 5 -15 10 0
6 7 10 15 10 8 0 15 -4 15 -10z m-280 -411 c0 -5 -7 -9 -15 -9 -15 0 -20 12
-9 23 8 8 24 -1 24 -14z m-30 -119 c0 -5 -2 -10 -4 -10 -3 0 -8 5 -11 10 -3 6
-1 10 4 10 6 0 11 -4 11 -10z m-297 -23 c3 -7 -1 -24 -9 -38 -10 -18 -13 -20
-14 -6 0 9 -5 17 -10 17 -6 0 -5 8 2 20 15 23 24 25 31 7z m97 -267 c0 -5 -9
-10 -19 -10 -11 0 -23 5 -26 10 -4 6 5 10 19 10 14 0 26 -4 26 -10z"/>
<path d="M4740 6995 c0 -16 -3 -48 -7 -70 -3 -22 -3 -37 1 -34 12 11 23 107
15 121 -6 9 -9 3 -9 -17z"/>
<path d="M5441 6993 c0 -10 14 -29 30 -42 27 -21 33 -22 57 -11 22 11 24 14
10 17 -10 3 -18 9 -18 15 0 16 -32 37 -57 38 -16 0 -23 -6 -22 -17z"/>
<path d="M5585 6970 c-3 -5 -1 -10 4 -10 6 0 11 5 11 10 0 6 -2 10 -4 10 -3 0
-8 -4 -11 -10z"/>
<path d="M4712 6860 c0 -14 2 -19 5 -12 2 6 2 18 0 25 -3 6 -5 1 -5 -13z"/>
<path d="M4925 6750 c-8 -27 6 -43 29 -34 22 8 17 48 -6 52 -10 2 -19 -5 -23
-18z"/>
<path d="M7331 6590 c-22 -13 -3 -30 33 -30 25 0 35 -5 39 -20 3 -11 10 -20
16 -20 21 0 11 19 -21 43 -47 34 -52 37 -67 27z"/>
<path d="M4846 6523 c-5 -17 -12 -29 -48 -85 -10 -14 -18 -39 -18 -55 0 -15
-9 -39 -20 -53 -11 -14 -20 -32 -20 -40 0 -8 -9 -26 -20 -40 -24 -31 -25 -39
-2 -56 16 -13 16 -13 -3 -14 -32 0 -135 34 -135 45 0 5 -11 15 -25 21 -19 10
-27 9 -37 -3 -9 -11 -9 -16 1 -22 10 -7 10 -15 -3 -40 -13 -24 -23 -31 -45
-31 -39 0 -47 32 -17 68 13 15 26 41 30 57 4 17 9 38 12 48 9 29 -13 19 -24
-12 -6 -16 -21 -35 -34 -42 -13 -7 -29 -20 -36 -31 -7 -10 -22 -18 -33 -18
-20 0 -26 15 -9 25 6 3 10 21 10 40 0 19 5 37 10 40 6 3 10 22 10 41 0 19 -4
34 -10 34 -5 0 -10 -4 -10 -10 0 -5 -7 -10 -16 -10 -10 0 -14 -6 -11 -14 4
-10 1 -13 -9 -9 -9 3 -14 -1 -14 -11 0 -9 -9 -27 -21 -39 l-20 -22 -18 22
c-18 21 -18 21 -31 -28 -8 -27 -20 -55 -27 -60 -14 -12 -70 -14 -102 -4 -26 8
-26 8 -1 -43 26 -52 25 -62 -2 -62 -26 1 -58 22 -58 38 0 6 -15 14 -32 17 -18
4 -39 12 -46 18 -7 5 -16 6 -20 2 -4 -4 4 -15 18 -24 14 -9 38 -30 55 -47 17
-17 40 -36 52 -42 12 -7 39 -40 58 -74 20 -34 44 -68 53 -74 9 -7 13 -16 9
-20 -4 -5 -36 22 -71 58 -47 51 -75 71 -112 84 -27 9 -56 22 -64 29 -19 15
-106 45 -134 45 -18 0 -17 -3 9 -30 16 -16 34 -30 39 -30 6 0 44 -32 84 -71
40 -39 89 -77 109 -85 20 -9 43 -22 51 -31 15 -15 54 -14 94 2 13 5 19 0 24
-21 11 -43 -23 -65 -100 -63 -33 2 -72 8 -86 14 -35 16 -75 5 -75 -20 0 -11 2
-22 5 -25 3 -3 10 -14 16 -25 6 -11 31 -33 56 -50 55 -36 84 -78 65 -93 -6 -5
-39 -13 -73 -17 -82 -9 -88 -15 -91 -76 -1 -43 -7 -57 -32 -83 -17 -18 -31
-36 -31 -41 0 -12 -91 -98 -97 -91 -10 10 -35 -25 -29 -40 5 -12 1 -14 -17 -9
-21 6 -21 6 3 -14 46 -37 121 -71 159 -71 24 0 44 -7 54 -18 15 -17 15 -20 1
-41 -15 -20 -21 -22 -86 -16 -38 3 -85 13 -104 23 -29 14 -37 14 -44 3 -4 -8
-6 -20 -3 -27 5 -15 -27 -34 -56 -34 -12 0 -21 5 -21 11 0 21 -53 4 -74 -24
-26 -35 -31 -127 -10 -195 7 -26 14 -60 14 -76 0 -16 7 -37 15 -46 15 -16 20
-13 68 38 86 92 169 169 224 209 29 21 60 54 70 73 10 19 24 40 30 45 15 11
56 82 79 135 81 185 203 430 214 430 16 0 12 -23 -20 -107 -16 -43 -41 -118
-55 -168 -29 -101 -71 -213 -116 -312 -17 -37 -43 -104 -59 -148 -15 -44 -50
-134 -77 -200 -27 -66 -55 -147 -62 -180 -7 -33 -16 -74 -20 -91 -4 -16 -4
-41 1 -54 6 -15 5 -33 -1 -46 -8 -18 -7 -21 7 -17 17 4 82 97 101 143 5 14 21
36 35 49 14 13 26 31 26 40 0 10 3 20 6 24 11 10 34 -5 34 -22 0 -35 13 -30
46 17 27 36 44 50 77 59 23 6 68 18 100 27 103 28 140 56 272 208 22 25 58 69
80 97 22 28 44 51 50 51 15 0 42 64 50 119 4 24 16 64 28 90 12 28 21 69 21
106 1 33 5 65 9 72 4 6 26 14 50 18 67 10 137 28 131 34 -3 3 -29 6 -57 6 -55
1 -113 28 -121 55 -3 12 -4 12 -5 -1 0 -9 8 -27 20 -40 20 -23 20 -24 2 -28
-26 -5 -43 -21 -43 -40 0 -9 -5 -23 -10 -31 -9 -13 -13 -12 -29 8 -26 30 -37
28 -50 -8 -9 -28 -13 -30 -65 -30 -49 0 -56 2 -56 20 0 26 -36 27 -45 1 -3
-10 -15 -27 -26 -37 -26 -23 -52 -9 -59 32 -4 22 -12 30 -30 32 -36 5 -45 18
-21 31 13 7 21 22 21 36 0 14 4 25 9 25 18 0 22 39 7 67 -8 15 -15 24 -16 19
0 -17 -30 17 -30 35 0 26 -21 35 -36 14 -11 -15 -13 -11 -12 32 1 38 6 53 21
62 28 18 89 5 139 -30 24 -16 52 -29 64 -29 11 0 29 -9 39 -20 10 -11 26 -20
36 -20 28 0 49 -11 49 -26 0 -21 36 -53 67 -60 24 -6 19 2 -37 57 -36 35 -91
81 -122 102 -69 45 -83 63 -42 53 81 -20 75 -21 68 13 -4 20 -3 31 5 31 6 0
11 9 11 20 0 11 7 20 16 20 10 0 13 -6 9 -18 -5 -17 -1 -18 31 -13 40 6 61 29
51 54 -4 12 -15 15 -40 10 -52 -8 -55 12 -8 57 33 32 46 39 80 38 23 0 41 -4
41 -9 0 -5 10 -9 23 -9 13 0 28 -5 34 -11 12 -12 53 -3 53 12 0 5 -10 14 -22
19 -21 8 -22 9 -3 9 11 1 30 -6 42 -14 19 -13 20 -20 12 -47 -16 -57 -12 -78
15 -78 14 0 28 5 31 10 3 6 11 10 17 10 10 0 8 -22 -8 -77 -5 -20 -3 -23 20
-23 34 0 61 40 53 79 -6 27 -5 28 41 29 41 0 105 -15 177 -44 18 -7 18 -6 6 9
-7 9 -20 17 -27 17 -8 0 -14 5 -14 10 0 6 -17 18 -37 28 -21 9 -42 23 -46 30
-4 6 -15 12 -24 12 -8 0 -36 11 -62 24 -25 13 -67 30 -94 36 -26 7 -50 17 -53
21 -3 5 -16 9 -30 9 -13 0 -24 5 -24 10 0 6 -6 10 -13 10 -22 0 -34 20 -29 47
5 25 6 25 66 19 l61 -6 -40 27 c-22 15 -49 35 -59 45 -20 18 -20 18 0 18 24 0
44 18 38 35 -3 6 2 18 11 25 8 7 15 18 15 25 0 6 9 20 21 31 30 27 21 87 -26
180 -38 75 -66 95 -79 57z m-386 -429 c0 -7 -7 -17 -15 -21 -8 -5 -17 -27 -20
-48 -2 -22 -13 -57 -23 -77 -11 -21 -23 -62 -27 -93 -4 -38 -11 -55 -21 -55
-12 0 -13 12 -8 62 3 35 12 72 20 83 8 11 14 29 14 41 0 12 6 27 14 33 8 6 19
32 25 56 8 33 15 43 26 39 8 -4 15 -12 15 -20z m373 -121 c-7 -2 -19 -2 -25 0
-7 3 -2 5 12 5 14 0 19 -2 13 -5z m-393 -110 l0 -28 13 25 c10 19 20 25 46 25
21 0 36 -6 39 -14 3 -9 0 -12 -10 -8 -9 3 -21 0 -27 -6 -16 -16 -13 -47 4 -47
24 0 30 -29 9 -45 -21 -16 -35 -19 -33 -7 4 23 -2 35 -12 25 -8 -8 -19 -7 -40
4 -31 15 -38 47 -19 84 15 27 30 23 30 -8z"/>
<path d="M9540 6470 c-19 -5 -177 -11 -350 -14 -173 -3 -346 -11 -385 -16 -38
-6 -91 -14 -117 -17 -27 -3 -48 -10 -48 -15 0 -6 106 -7 293 -3 160 4 355 9
432 10 77 2 161 4 188 4 45 1 47 2 47 31 0 32 -3 33 -60 20z"/>
<path d="M4588 6430 c-15 -17 -30 -40 -34 -52 -4 -13 7 -6 31 21 20 22 35 45
33 51 -2 6 -15 -3 -30 -20z"/>
<path d="M4395 6429 c-4 -6 -5 -12 -2 -15 2 -3 7 2 10 11 7 17 1 20 -8 4z"/>
<path d="M7903 6424 c-4 -12 5 -26 28 -45 38 -31 64 -36 88 -15 9 7 44 19 78
26 34 7 64 18 67 25 6 17 -45 25 -162 25 -77 0 -94 -3 -99 -16z"/>
<path d="M8538 6403 c7 -3 16 -2 19 1 4 3 -2 6 -13 5 -11 0 -14 -3 -6 -6z"/>
<path d="M7550 6327 c0 -7 23 -38 50 -68 l51 -54 -20 40 c-18 36 -65 95 -76
95 -3 0 -5 -6 -5 -13z"/>
<path d="M5195 6131 c-5 -22 0 -38 22 -70 15 -22 34 -40 41 -41 27 0 -14 127
-45 137 -6 2 -14 -9 -18 -26z"/>
<path d="M1112 5857 c-15 -219 -15 -257 -2 -257 6 0 10 43 11 108 1 59 4 154
8 212 4 58 5 108 1 112 -3 5 -11 -74 -18 -175z"/>
<path d="M5277 5962 c-8 -11 29 -52 47 -52 22 0 20 16 -6 40 -23 21 -34 25
-41 12z"/>
<path d="M5137 5803 c-40 -6 -28 -25 29 -45 61 -22 64 -22 64 2 0 16 -49 55
-62 49 -2 -1 -16 -4 -31 -6z"/>
<path d="M4763 5768 c2 -7 15 -12 28 -12 13 1 28 -5 32 -13 7 -11 12 -12 23
-2 13 10 9 14 -23 25 -48 17 -66 17 -60 2z"/>
<path d="M5262 5739 c-10 -15 -11 -24 -3 -32 15 -15 23 -3 19 27 -3 27 -3 27
-16 5z"/>
<path d="M7940 5705 c0 -39 23 -105 37 -105 18 0 16 23 -4 81 -19 53 -33 63
-33 24z"/>
<path d="M4825 5619 c-4 -5 0 -18 9 -28 9 -10 16 -23 16 -29 0 -7 13 -12 29
-12 16 0 34 -7 41 -15 25 -30 80 -6 80 34 0 25 -9 26 -36 6 -30 -22 -48 -18
-85 20 -37 37 -44 41 -54 24z"/>
<path d="M6151 5589 c-20 -8 -43 -24 -98 -70 -7 -5 -13 -19 -13 -29 0 -17 7
-20 45 -20 34 0 47 4 52 18 3 9 16 31 28 47 43 60 39 76 -14 54z"/>
<path d="M4790 5570 c0 -5 5 -10 10 -10 6 0 10 5 10 10 0 6 -4 10 -10 10 -5 0
-10 -4 -10 -10z"/>
<path d="M8000 5544 c0 -14 4 -23 9 -20 5 3 7 15 4 26 -7 28 -13 25 -13 -6z"/>
<path d="M5041 5519 c-11 -19 -27 -42 -37 -51 -17 -17 -15 -18 29 -18 28 0 47
-5 47 -11 0 -22 74 2 107 34 53 52 46 59 -69 72 -57 7 -57 7 -77 -26z"/>
<path d="M6503 5489 c-35 -4 -68 -11 -74 -14 -13 -8 -106 -25 -179 -32 -33 -3
-59 -11 -66 -21 -15 -21 -91 -17 -116 5 -16 14 -20 14 -50 -4 -18 -10 -35 -30
-38 -43 -3 -14 -17 -30 -30 -37 -14 -7 -24 -19 -22 -27 1 -8 -9 -60 -23 -114
-18 -74 -22 -107 -16 -128 5 -16 12 -62 15 -102 6 -75 24 -117 54 -124 27 -8
78 -116 90 -193 6 -38 13 -116 16 -173 2 -57 7 -106 10 -110 12 -11 30 18 33
51 1 17 5 66 8 107 4 46 2 90 -6 118 -12 42 -11 45 15 69 31 29 56 24 56 -11
0 -19 4 -23 20 -19 19 5 20 0 20 -64 0 -38 -3 -73 -7 -77 -5 -4 -8 -20 -8 -34
0 -22 -6 -28 -30 -32 -35 -6 -46 -35 -16 -45 29 -9 27 -29 -3 -21 -12 3 -26 3
-29 0 -11 -11 5 -34 24 -34 21 0 40 -37 36 -72 -2 -18 5 -23 39 -30 28 -6 51
-20 74 -46 28 -33 33 -47 36 -96 1 -33 8 -70 15 -83 9 -16 10 -27 3 -31 -6 -4
-13 -15 -17 -24 -3 -10 -13 -18 -22 -18 -23 0 -18 -18 10 -36 18 -12 23 -22
19 -38 -4 -19 3 -25 47 -45 42 -20 53 -21 60 -10 8 12 11 12 22 -1 6 -8 21
-14 33 -12 11 2 27 -4 34 -13 23 -28 59 -18 107 32 57 58 88 117 97 186 10 76
25 117 44 118 57 4 57 4 54 30 -4 40 15 78 43 89 15 6 25 17 25 30 0 32 45
114 89 162 22 23 42 57 46 74 3 18 12 35 20 38 8 3 15 12 15 21 0 8 7 15 15
15 8 0 15 5 15 10 0 6 16 10 36 10 32 0 35 2 24 15 -16 19 -5 32 14 16 11 -9
15 -8 20 5 8 22 8 26 -4 19 -6 -4 -19 4 -29 16 -16 19 -21 21 -34 11 -21 -18
-31 1 -16 30 12 23 12 23 -9 4 -16 -14 -31 -17 -57 -13 -30 5 -35 3 -35 -13 0
-12 -14 -25 -40 -36 -25 -11 -40 -24 -40 -36 0 -13 -8 -18 -25 -18 -16 0 -28
-7 -31 -17 -16 -50 -51 -104 -103 -161 -56 -61 -59 -63 -87 -51 -16 7 -49 29
-74 50 -25 20 -70 49 -100 64 -30 15 -71 40 -90 55 -20 16 -54 36 -75 46 -22
10 -41 19 -43 20 -1 1 -7 15 -12 33 -8 30 -8 31 22 31 21 0 31 -6 35 -20 5
-18 7 -18 34 -4 37 19 41 61 7 66 -17 2 -22 9 -20 26 2 12 -2 22 -7 22 -6 0
-11 15 -11 33 0 36 30 72 65 79 12 2 21 13 23 27 3 21 8 23 38 18 32 -5 62 12
36 21 -7 2 -10 8 -6 13 8 14 24 11 24 -5 0 -8 9 -18 20 -21 11 -3 20 -10 20
-15 0 -4 16 -27 35 -50 19 -23 35 -48 35 -55 0 -8 7 -18 16 -23 15 -8 34 -62
54 -152 4 -19 8 -28 9 -19 0 9 7 22 15 28 16 14 18 91 2 110 -9 12 -5 13 22 9
18 -2 31 -1 30 3 -3 6 -106 124 -148 169 -26 26 -80 98 -80 104 0 3 9 6 20 6
23 0 26 13 6 29 -8 7 -12 21 -9 32 4 15 -3 29 -28 50 -19 16 -37 29 -41 29 -9
0 -39 62 -33 68 3 3 29 6 59 7 58 2 126 35 126 60 0 12 39 42 48 37 12 -8 31
2 40 22 12 28 -4 49 -35 46 -10 -1 -20 -1 -23 -1 -3 1 -20 4 -38 6 -18 1 -41
10 -51 19 -10 9 -24 15 -32 15 -8 -1 -42 -5 -76 -10z m-413 -129 c0 -11 6 -20
13 -20 18 0 40 -37 24 -43 -7 -2 -2 -15 16 -36 15 -18 27 -43 27 -56 0 -23
-26 -53 -37 -41 -3 3 -15 -1 -25 -11 -10 -9 -18 -12 -18 -8 0 4 -9 0 -21 -11
-12 -10 -24 -18 -28 -17 -3 2 -14 0 -23 -3 -19 -6 -25 -24 -8 -24 6 0 10 -20
10 -45 0 -25 -4 -45 -10 -45 -5 0 -10 -7 -10 -15 0 -14 -3 -14 -29 -1 -16 9
-31 22 -34 30 -8 22 24 116 60 171 17 28 35 62 38 77 4 15 13 32 21 39 11 9
11 15 3 25 -14 17 -2 54 17 54 8 0 14 -9 14 -20z m411 -140 c15 0 10 -20 -6
-26 -18 -7 -47 14 -39 28 3 5 13 7 21 4 8 -3 19 -6 24 -6z m-169 -86 c10 -20
9 -27 -2 -34 -12 -7 -11 -12 4 -29 22 -25 42 -18 55 20 11 31 38 39 48 13 3
-9 -2 -21 -14 -29 -11 -8 -23 -27 -26 -43 -5 -25 -77 -112 -93 -112 -3 0 -5
15 -4 33 3 57 0 66 -22 69 -14 2 -24 12 -28 27 -5 21 -7 22 -19 7 -26 -31 -81
-16 -81 23 0 12 85 51 113 51 13 0 27 7 31 15 8 23 25 18 38 -11z m-162 -124
c0 -5 -5 -10 -11 -10 -5 0 -7 5 -4 10 3 6 8 10 11 10 2 0 4 -4 4 -10z m-90
-228 l0 -25 -29 29 c-34 33 -31 48 4 32 17 -8 25 -19 25 -36z m167 -424 c-3
-8 -6 -5 -6 6 -1 11 2 17 5 13 3 -3 4 -12 1 -19z m41 -45 c5 -18 -23 -16 -39
3 -11 14 -10 15 11 12 13 -1 25 -9 28 -15z m309 -55 c-3 -7 -5 -2 -5 12 0 14
2 19 5 13 2 -7 2 -19 0 -25z m115 -73 c19 8 32 -34 20 -66 l-9 -22 -15 22
c-10 14 -18 18 -23 12 -12 -21 -25 0 -25 41 0 39 1 40 19 24 10 -9 25 -14 33
-11z"/>
<path d="M5310 5480 c0 -5 7 -10 16 -10 8 0 12 5 9 10 -3 6 -10 10 -16 10 -5
0 -9 -4 -9 -10z"/>
<path d="M1076 5373 c-5 -18 -9 -160 -6 -223 1 -34 2 -34 11 -10 10 25 15 238
6 247 -3 2 -8 -4 -11 -14z"/>
<path d="M5810 5320 c-8 -5 -11 -12 -8 -16 10 -9 38 3 38 16 0 12 -10 13 -30
0z"/>
<path d="M7980 5320 c-13 -9 -13 -11 0 -19 17 -12 30 -5 30 15 0 16 -9 18 -30
4z"/>
<path d="M8217 5303 c-4 -6 -7 -36 -8 -67 -2 -63 -15 -79 -60 -78 -24 1 -34
-7 -53 -36 -13 -20 -25 -58 -28 -84 -3 -25 -16 -68 -29 -95 -15 -30 -24 -68
-25 -103 -2 -36 -7 -56 -16 -60 -28 -10 -108 -83 -108 -97 0 -10 -6 -12 -20
-8 -12 4 -26 3 -33 -2 -7 -5 -32 -15 -57 -22 -25 -7 -54 -19 -65 -27 -11 -8
-28 -14 -39 -14 -24 0 -239 -66 -279 -86 -16 -8 -41 -14 -57 -14 -19 0 -29 -6
-33 -20 -3 -13 -1 -18 6 -13 6 4 34 8 61 9 58 3 163 23 188 36 9 4 48 9 86 9
68 1 69 2 80 33 14 38 69 58 115 42 24 -9 27 -15 27 -51 0 -41 -22 -75 -47
-75 -6 0 -13 -9 -16 -20 -3 -11 -16 -24 -30 -29 -14 -6 -29 -23 -36 -42 -15
-43 -39 -69 -66 -69 -11 0 -26 -5 -32 -11 -11 -11 -69 -9 -203 5 l-45 5 55
-19 c80 -27 228 -28 263 0 14 11 30 20 35 20 5 0 12 7 16 15 3 8 15 15 26 15
20 0 21 -4 24 -67 1 -13 -7 -18 -25 -18 -15 -1 -49 -18 -78 -40 l-52 -40 32
-8 c29 -8 36 -5 68 29 46 47 54 26 18 -49 -31 -64 -60 -158 -83 -262 -9 -44
-21 -88 -26 -97 -5 -10 -13 -38 -18 -63 -6 -25 -14 -66 -20 -91 -10 -47 -20
-73 -76 -190 -19 -39 -34 -75 -34 -81 0 -6 -16 -30 -35 -54 -19 -24 -37 -55
-40 -69 -3 -14 -18 -34 -33 -44 -27 -17 -25 -18 28 -5 10 3 15 -3 15 -18 0
-12 10 -33 23 -48 22 -26 23 -28 6 -46 -17 -19 -17 -20 4 -35 27 -19 29 -44 2
-44 -13 0 -20 -7 -20 -20 0 -11 -7 -20 -15 -20 -8 0 -15 -4 -15 -10 0 -5 6
-10 13 -10 6 0 26 -11 42 -25 17 -14 23 -23 15 -21 -64 18 -70 17 -70 -8 0
-16 9 -30 28 -41 45 -28 64 -60 56 -100 -6 -32 -9 -35 -40 -35 -19 0 -34 -3
-34 -7 0 -5 -4 -14 -9 -21 -6 -11 -16 -10 -50 4 -38 15 -43 15 -60 0 -22 -20
-41 -20 -55 0 -7 9 -27 19 -46 23 -39 8 -52 35 -25 55 20 14 17 46 -5 56 -68
31 -75 37 -72 57 2 12 -2 24 -8 28 -8 5 -11 -4 -8 -30 2 -28 -2 -40 -15 -49
-15 -9 -20 -7 -30 9 -12 19 -13 25 -16 53 -1 17 -53 15 -77 -2 -21 -16 -22
-14 31 -31 8 -2 17 -22 21 -44 4 -27 18 -52 40 -75 19 -19 34 -39 34 -43 0 -4
14 -16 30 -25 31 -18 42 -45 14 -34 -31 12 -35 -6 -8 -35 23 -24 25 -31 14
-44 -7 -8 -21 -15 -31 -15 -15 0 -18 -6 -15 -32 3 -18 5 -41 5 -50 1 -27 36
-22 55 7 12 18 23 24 36 20 25 -8 35 12 20 41 -11 20 -11 27 5 45 15 16 16 22
6 28 -8 5 -11 17 -6 30 5 16 15 21 38 21 28 0 36 -6 57 -45 24 -43 24 -46 7
-74 -9 -16 -17 -35 -17 -43 0 -8 -16 -20 -35 -27 -43 -15 -50 -51 -11 -51 14
0 28 -4 31 -10 3 -5 -3 -10 -14 -10 -26 0 -36 -34 -21 -70 9 -22 9 -34 -4 -57
-25 -49 -40 -57 -76 -38 -58 30 -79 86 -55 148 6 13 2 17 -14 17 -12 0 -21 6
-21 13 0 7 -14 23 -31 37 -40 33 -51 54 -43 84 5 22 10 24 41 19 l35 -6 -7 34
c-10 48 -26 61 -103 84 -45 14 -68 26 -70 38 -4 22 16 22 40 0 17 -15 18 -15
18 6 0 14 -7 25 -20 28 -14 4 -20 14 -20 34 0 23 -5 30 -27 35 -16 4 -39 15
-53 24 -38 25 -132 70 -148 70 -8 0 -27 9 -43 21 -37 26 -87 41 -95 28 -9 -16
45 -80 81 -94 17 -8 37 -20 44 -28 6 -8 24 -17 39 -20 16 -3 40 -23 60 -49 26
-34 33 -51 30 -81 -2 -28 2 -41 15 -48 27 -15 21 -106 -9 -142 -17 -20 -24
-24 -24 -13 0 21 -65 22 -77 2 -4 -8 -17 -15 -28 -18 -22 -4 -30 -26 -17 -45
4 -7 30 -16 58 -19 27 -4 54 -12 59 -19 6 -6 20 -17 33 -24 15 -8 22 -21 22
-43 0 -27 -3 -30 -22 -24 -13 4 -63 13 -113 21 -49 8 -119 23 -155 33 -98 28
-157 42 -185 42 -15 0 -28 7 -32 18 -7 21 -33 52 -43 52 -5 0 -11 -12 -14 -26
-6 -22 -10 -25 -38 -19 -20 5 -28 4 -24 -4 6 -9 -62 -60 -81 -61 -15 -1 -53
-38 -53 -53 0 -8 -18 -33 -40 -55 -22 -22 -40 -47 -40 -56 0 -15 -2 -15 -24
-1 -19 13 -29 14 -45 6 -11 -6 -38 -11 -60 -11 -36 0 -41 3 -47 28 -8 31 -41
72 -60 72 -7 0 -24 11 -37 24 -22 22 -59 46 -71 46 -3 0 -6 -11 -6 -24 0 -19
8 -27 34 -36 19 -6 42 -22 50 -36 15 -21 15 -27 2 -53 -20 -37 -66 -76 -130
-108 -28 -14 -71 -40 -96 -57 -25 -17 -73 -45 -107 -63 -35 -18 -88 -46 -120
-64 -31 -18 -78 -43 -103 -56 -25 -13 -52 -28 -60 -33 -8 -5 -58 -26 -110 -46
-52 -20 -99 -39 -105 -44 -5 -4 -35 -15 -65 -25 -30 -10 -72 -26 -92 -36 -50
-25 -78 -25 -78 1 0 24 1 24 -43 5 -20 -8 -44 -15 -53 -15 -25 0 22 45 74 72
39 20 51 36 36 51 -7 7 -55 -23 -96 -61 -24 -22 -28 -23 -42 -9 -8 8 -23 34
-33 58 -22 57 -55 109 -69 109 -6 0 -19 9 -29 20 -22 24 -86 58 -145 76 -53
17 -71 30 -87 64 l-12 25 0 -27 c-1 -25 15 -45 90 -113 24 -22 66 -51 89 -62
8 -4 21 -12 27 -19 7 -7 18 -14 25 -16 7 -3 15 -33 19 -74 4 -38 10 -88 14
-111 5 -30 2 -56 -11 -92 -18 -50 -29 -65 -165 -209 -38 -40 -69 -77 -69 -82
0 -5 -13 -22 -28 -39 -32 -36 -82 -130 -82 -156 0 -10 -9 -32 -19 -49 -26 -43
-69 -155 -73 -191 -2 -22 -9 -31 -28 -35 -30 -7 -43 -60 -15 -60 14 0 14 -2
-1 -25 -10 -16 -26 -25 -41 -25 -24 0 -25 -2 -21 -45 6 -53 -13 -88 -45 -83
-32 4 -35 58 -6 97 19 25 20 33 9 46 -11 13 -11 25 0 70 7 29 10 60 7 68 -7
19 -76 32 -90 18 -18 -18 -27 -13 -27 14 0 37 -26 31 -46 -10 -9 -19 -19 -33
-23 -31 -11 7 -34 -11 -27 -22 3 -5 19 -12 36 -15 31 -7 41 -31 15 -41 -8 -3
-14 -15 -12 -28 2 -18 -4 -24 -26 -26 -35 -4 -54 -40 -38 -70 11 -20 -2 -42
-16 -28 -6 6 -6 216 -1 233 2 4 -7 18 -19 30 -20 20 -21 26 -11 48 6 14 8 28
4 32 -10 11 -40 -11 -45 -33 -2 -10 -9 -23 -16 -29 -7 -5 -16 -27 -19 -48 -4
-20 -11 -37 -16 -37 -6 0 -10 -7 -10 -16 0 -35 -40 -103 -62 -106 -19 -2 -22
-8 -20 -36 3 -30 1 -32 -27 -32 -31 0 -43 21 -21 35 11 7 13 172 3 208 -4 14
-11 17 -33 12 -50 -11 -70 31 -35 75 7 8 25 38 41 65 36 64 47 75 76 75 33 0
44 10 58 55 7 22 28 70 47 106 32 65 47 159 24 159 -12 0 -70 -66 -82 -94 -5
-11 -21 -41 -34 -65 -14 -24 -25 -51 -25 -60 0 -9 -11 -25 -25 -35 -14 -10
-25 -25 -25 -32 0 -7 -6 -19 -13 -26 -31 -32 -57 -78 -57 -102 0 -27 -21 -67
-53 -98 -11 -12 -15 -26 -11 -42 4 -19 -1 -29 -24 -46 -22 -16 -31 -33 -35
-62 -6 -46 -31 -78 -62 -78 -45 0 -55 36 -33 129 17 73 10 78 -124 83 -62 3
-113 9 -115 14 -2 6 -23 45 -47 87 -44 77 -44 79 -39 150 4 57 2 80 -12 106
-16 32 -16 34 8 60 28 30 66 85 85 121 21 39 52 180 52 236 0 84 15 83 88 -9
36 -45 75 -98 86 -117 29 -49 198 -220 218 -220 9 0 35 26 58 58 96 133 182
210 223 197 48 -15 109 -12 149 7 24 12 57 21 73 22 l30 1 6 85 c7 98 23 200
38 250 14 45 14 107 0 201 -11 70 -14 75 -34 71 -17 -3 -21 -9 -17 -28 3 -17
-3 -33 -19 -50 -21 -23 -28 -24 -83 -18 -75 8 -96 18 -96 46 0 12 -3 18 -6 15
-15 -14 -44 15 -44 43 0 62 -24 26 -58 -85 -7 -24 -15 -30 -38 -31 -16 -1 -46
-2 -67 -3 l-38 -1 5 -44 c4 -32 1 -48 -9 -56 -8 -7 -15 -21 -15 -31 0 -10 -5
-21 -10 -24 -7 -4 -9 2 -5 17 2 12 7 70 10 128 2 58 11 143 20 190 18 99 19
197 4 237 -9 24 -12 26 -20 11 -5 -9 -16 -69 -24 -134 -8 -64 -21 -126 -28
-138 -8 -12 -20 -48 -27 -81 -7 -33 -17 -64 -21 -69 -4 -5 -4 -17 1 -26 8 -15
4 -19 -23 -24 -21 -4 -28 -9 -19 -14 6 -5 12 -19 12 -33 0 -13 2 -40 6 -59 7
-46 -16 -80 -43 -64 -10 6 -22 23 -27 37 -8 23 -6 30 17 50 28 24 27 37 -4 37
-39 0 -42 110 -9 342 6 40 14 177 17 303 7 257 7 284 -1 337 l-5 37 45 7 c24
3 55 15 68 25 33 26 50 24 84 -10 27 -28 31 -29 70 -18 32 9 50 8 72 -1 17 -7
43 -17 59 -24 23 -9 38 -9 70 2 36 12 43 11 59 -3 21 -20 84 -22 111 -5 14 9
30 8 69 -5 28 -10 62 -17 76 -17 21 0 30 -12 62 -77 47 -98 55 -175 52 -501
-2 -263 -1 -269 59 -237 20 11 42 19 48 17 13 -3 35 40 35 68 0 13 -7 20 -20
20 -16 0 -20 7 -20 34 0 30 6 38 50 66 27 18 50 36 50 40 0 12 47 55 77 70 15
8 35 20 43 26 28 23 214 63 335 73 104 8 128 14 180 41 42 21 89 35 155 45 97
15 153 30 209 59 29 15 31 20 31 71 0 29 -4 56 -10 60 -14 9 -81 -37 -114 -79
l-28 -36 -25 20 c-14 11 -31 20 -37 20 -6 0 -24 7 -41 16 -16 9 -75 27 -130
40 -55 14 -136 34 -180 44 -45 11 -88 20 -97 20 -9 0 -28 4 -42 10 -23 8 -25
12 -15 34 14 30 4 76 -16 76 -8 0 -15 6 -15 13 0 16 31 47 46 47 6 0 15 5 22
12 9 9 8 16 -5 30 -19 21 -56 24 -72 4 -14 -17 -57 -26 -176 -35 -49 -4 -120
-16 -158 -26 -63 -18 -68 -18 -84 -2 -16 16 -16 17 10 17 15 0 60 9 100 20 39
11 106 23 147 26 74 6 180 31 180 43 0 3 -16 16 -35 29 -19 12 -35 26 -35 30
0 4 24 8 53 9 47 2 118 -17 180 -48 9 -5 55 -11 100 -14 46 -2 138 -16 206
-30 68 -15 125 -24 127 -22 2 2 -9 15 -24 29 -16 15 -64 37 -114 53 -49 16
-88 32 -88 36 0 5 -16 9 -36 9 -41 0 -108 36 -101 54 3 7 -9 18 -27 25 -31 14
-86 65 -86 81 0 5 -9 12 -20 15 -29 9 -70 49 -70 68 0 21 26 28 54 15 54 -24
66 19 24 87 -25 41 -24 58 3 50 24 -8 112 -66 117 -77 6 -13 30 -9 39 5 13 22
70 28 111 13 79 -30 111 -29 80 2 -9 9 -8 12 6 12 17 0 17 2 2 25 -9 13 -16
33 -16 43 0 11 -7 26 -16 33 -9 7 -20 24 -25 37 -5 13 -17 26 -27 29 -46 12
-138 219 -102 231 7 3 19 12 27 22 9 10 31 35 50 55 24 25 31 40 23 45 -12 7
28 27 67 33 26 4 53 25 53 43 0 7 6 17 13 21 17 11 37 49 37 73 0 10 16 35 35
54 19 20 35 42 35 49 0 8 9 26 21 41 12 15 23 45 26 66 3 22 9 40 13 40 5 0
23 30 40 68 17 37 36 75 41 84 5 10 9 26 9 36 0 10 4 22 9 27 5 6 12 21 16 33
6 22 5 23 -17 17 -24 -8 -41 -26 -106 -107 -20 -26 -43 -47 -49 -48 -15 0 -17
-26 -3 -35 5 -3 0 -24 -12 -50 -24 -49 -38 -59 -31 -21 7 33 -16 44 -38 18 -9
-12 -22 -22 -29 -22 -13 0 -26 -11 -80 -62 -21 -21 -42 -38 -47 -38 -4 0 -24
-15 -44 -33 -21 -17 -45 -39 -56 -47 -78 -62 -113 -89 -148 -112 -22 -15 -54
-39 -71 -55 -17 -15 -68 -55 -113 -88 -212 -155 -220 -162 -513 -437 -16 -16
-31 -28 -34 -28 -12 0 -74 -71 -74 -85 0 -42 52 -177 96 -250 42 -70 22 -74
-22 -4 -27 44 -54 52 -54 15 0 -39 29 -110 53 -128 19 -15 20 -19 7 -28 -23
-15 -80 -12 -86 5 -6 15 -64 48 -71 41 -3 -2 0 -13 6 -24 6 -12 11 -28 11 -36
0 -23 -37 -20 -52 4 -7 11 -20 20 -30 20 -9 0 -20 5 -23 10 -3 6 -17 10 -31
10 -13 0 -34 11 -46 25 -24 27 -61 37 -38 10 6 -8 9 -19 5 -25 -8 -13 -72 -13
-80 0 -3 6 -18 7 -31 4 -19 -5 -29 -1 -40 15 -18 24 -34 28 -34 6 0 -11 -12
-15 -50 -15 -39 0 -50 3 -50 16 0 9 -6 14 -12 11 -7 -2 -20 0 -30 4 -10 6 -18
4 -21 -5 -7 -17 -57 -27 -79 -15 -10 5 -18 19 -18 31 0 21 -1 21 -28 -5 -15
-15 -35 -27 -44 -27 -17 0 -38 -47 -38 -85 0 -24 50 -85 69 -85 15 0 11 -41
-4 -41 -5 0 -12 10 -15 23 -3 13 -16 27 -28 33 -29 13 -46 94 -37 178 14 132
-23 352 -78 470 -78 166 -93 213 -110 349 -12 96 -17 110 -45 143 -37 41 -41
70 -12 78 12 3 20 14 20 26 0 17 6 21 29 21 17 0 33 5 36 10 11 18 -23 22 -93
12 -80 -11 -102 -3 -102 38 0 16 -11 65 -25 109 -21 65 -30 81 -45 81 -16 0
-20 -7 -20 -35 0 -30 -4 -35 -22 -35 -48 -1 -74 -44 -43 -70 29 -24 16 -32
-42 -25 -127 13 -122 11 -112 53 4 20 4 41 0 45 -20 20 -236 -41 -320 -89
-194 -112 -227 -137 -273 -208 -75 -116 -80 -138 -77 -353 2 -149 -1 -204 -15
-268 -22 -101 -38 -267 -40 -416 -1 -124 -11 -155 -47 -144 -11 4 -19 2 -19
-4 0 -6 7 -11 15 -11 18 0 20 -52 4 -99 -10 -27 -15 -31 -33 -26 -28 9 -67 14
-154 19 -40 3 -77 8 -83 11 -5 4 -16 2 -22 -4 -14 -11 -57 -4 -57 9 0 10 -290
6 -313 -4 -11 -5 -28 -4 -40 2 -20 9 -112 23 -144 22 -39 -2 -70 0 -187 11
-97 9 -133 9 -147 1 -14 -9 -25 -9 -46 0 -15 6 -97 13 -181 15 l-152 4 0 -46
0 -45 53 0 c128 -1 230 -26 360 -91 44 -22 93 -39 112 -39 18 0 35 -3 37 -7 1
-5 23 -26 48 -48 44 -39 75 -79 112 -144 14 -25 17 -43 12 -77 -5 -34 -3 -49
10 -63 9 -10 24 -56 32 -102 9 -46 20 -88 25 -94 15 -15 10 -104 -8 -138 -9
-18 -20 -56 -24 -85 -13 -96 -31 -85 -33 20 -1 89 -22 100 -45 25 -8 -26 -17
-47 -20 -47 -4 0 -13 15 -20 32 l-15 33 -12 -49 c-16 -63 -50 -88 -61 -45 -5
17 -9 14 -26 -21 -17 -32 -18 -43 -9 -52 10 -10 14 -8 18 10 6 22 15 27 27 16
12 -12 -69 -145 -124 -203 -84 -88 -133 -115 -274 -150 l-69 -18 46 -13 c34
-10 48 -20 50 -35 5 -31 38 -30 111 4 136 61 227 144 307 279 69 116 114 105
51 -12 -35 -66 -73 -115 -129 -169 -23 -22 -42 -46 -42 -54 0 -7 -8 -13 -18
-13 -10 0 -28 -11 -40 -25 -12 -14 -30 -25 -39 -26 -16 0 -15 -2 2 -9 17 -7
15 -9 -13 -9 -18 -1 -50 -10 -72 -21 -22 -11 -49 -20 -60 -20 -14 0 -20 -5
-18 -17 4 -21 -31 -30 -120 -32 -60 -1 -64 0 -80 29 -42 74 -42 75 -42 -665
l0 -705 799 0 798 0 42 45 c22 24 41 52 41 60 0 9 4 14 10 10 9 -5 -19 -67
-41 -90 -18 -19 -8 -25 41 -25 37 0 50 4 50 15 0 7 6 18 14 22 29 17 90 178
81 215 -9 34 33 92 69 96 28 4 96 -34 96 -53 0 -5 18 -30 40 -55 35 -40 41
-44 60 -32 11 6 27 12 35 12 9 0 13 5 10 10 -3 6 -2 10 4 10 5 0 11 -5 13 -11
2 -7 13 -9 26 -5 17 6 22 15 22 41 0 21 9 44 23 61 27 30 47 26 47 -11 0 -26
21 -46 28 -27 2 7 13 12 23 12 23 0 48 -51 57 -113 3 -28 14 -45 37 -63 17
-13 36 -24 41 -24 5 0 16 -9 24 -20 8 -11 20 -20 26 -20 7 0 26 -13 44 -30
l32 -30 3051 0 c1678 0 3048 2 3046 4 -7 7 -229 35 -434 56 -190 18 -322 39
-300 47 12 4 12 526 0 562 -9 30 15 131 32 131 7 0 13 5 13 10 0 6 -4 10 -9
10 -18 0 -30 59 -32 155 -1 131 9 305 21 361 6 25 10 91 9 147 -2 130 6 173
34 182 18 6 19 8 5 12 -14 3 -15 9 -6 36 5 18 10 38 11 46 0 9 7 6 19 -9 18
-22 20 -22 36 -7 14 15 14 17 1 17 -12 0 -18 19 -25 80 -5 44 -6 81 -2 82 3 2
9 41 13 88 5 61 3 81 -4 70 -6 -8 -11 -30 -11 -47 0 -18 -4 -33 -9 -33 -6 0
-12 -17 -14 -37 -6 -51 0 46 13 215 8 89 8 152 2 180 -9 37 -8 42 7 42 23 0
42 80 30 124 -15 51 -11 123 8 141 9 10 24 57 34 109 15 78 16 93 3 102 -27
22 -13 204 16 204 4 0 7 24 7 53 0 61 32 199 44 191 9 -5 12 17 9 77 -1 22 5
43 15 53 12 12 16 32 14 83 -1 38 3 93 9 123 7 41 7 59 -2 70 -17 22 -14 179
4 190 10 6 15 42 18 136 3 80 10 136 18 153 12 23 12 26 -2 29 -14 3 -15 15
-9 80 4 43 11 79 16 80 5 2 9 13 9 24 0 11 7 45 16 76 12 41 13 57 5 60 -6 2
-17 18 -24 35 -12 31 -13 62 -5 379 3 82 1 97 -12 95 -10 -1 -14 5 -12 18 4
28 4 34 -7 90 -16 77 -37 140 -44 128z m-342 -663 c8 -13 -5 -13 -25 0 -13 8
-13 10 2 10 9 0 20 -4 23 -10z m-2741 -149 c3 -5 -1 -11 -9 -14 -9 -4 -12 -1
-8 9 6 16 10 17 17 5z m-95 -125 c2 -43 1 -45 -34 -56 -41 -14 -40 -14 -49 21
-4 19 -1 29 9 33 8 3 15 12 15 20 0 13 16 22 46 25 5 0 11 -19 13 -43z m-1020
-1253 c-20 -23 -54 1 -57 40 l-3 35 35 -31 c25 -23 32 -35 25 -44z m376 -353
c-3 -5 -11 -10 -16 -10 -6 0 -7 5 -4 10 3 6 11 10 16 10 6 0 7 -4 4 -10z
m-2873 -61 c21 -12 21 -13 5 -62 -23 -66 -33 -68 -132 -27 -90 36 -146 37
-226 0 l-44 -19 -18 24 c-17 23 -18 23 -47 7 -17 -9 -30 -23 -30 -29 0 -16 32
-17 47 -2 13 13 33 4 33 -17 0 -8 9 -14 20 -14 26 0 25 -9 -3 -48 -36 -48 -72
-141 -71 -182 1 -25 43 -108 67 -133 24 -23 117 -57 159 -57 46 0 144 46 156
73 2 4 8 7 14 7 7 0 8 -14 5 -35 -3 -19 -1 -37 4 -40 11 -7 12 -55 1 -71 -15
-21 -79 -39 -137 -37 -79 3 -130 8 -143 17 -5 3 -17 4 -25 0 -8 -3 -17 2 -20
10 -4 9 -14 12 -26 9 -24 -6 -29 -33 -7 -33 8 0 17 -3 19 -7 3 -5 -17 -6 -44
-5 -45 4 -53 8 -94 57 l-45 52 1 169 c0 93 4 204 8 247 7 77 7 78 55 124 l49
45 225 -6 c124 -4 234 -12 244 -17z m5888 -89 c0 -5 -4 -10 -10 -10 -5 0 -10
5 -10 10 0 6 5 10 10 10 6 0 10 -4 10 -10z m-6072 -12 c-5 -13 -118 -23 -118
-10 0 17 15 22 68 22 37 0 52 -4 50 -12z m5181 -339 c36 -5 72 -15 80 -20 12
-8 10 -9 -11 -6 -16 2 -28 1 -28 -3 0 -13 -279 -5 -293 9 -9 9 -9 14 3 21 20
13 169 12 249 -1z m-402 -96 c-12 -3 -17 -12 -15 -26 1 -12 -1 -27 -5 -34 -9
-14 -37 -6 -37 11 0 23 32 56 53 55 18 -1 19 -2 4 -6z m148 -3 c3 -6 -1 -13
-10 -16 -19 -8 -30 0 -20 15 8 14 22 14 30 1z m161 -1 c-35 -5 -65 -5 -75 1
-11 6 7 9 59 8 l75 0 -59 -9z m129 1 c-3 -5 -13 -10 -21 -10 -8 0 -14 5 -14
10 0 6 9 10 21 10 11 0 17 -4 14 -10z m-399 -21 c3 -6 0 -15 -7 -20 -22 -14
-29 -11 -29 11 0 21 24 27 36 9z m64 -8 c0 -14 -18 -23 -30 -16 -6 4 -8 11 -5
16 8 12 35 12 35 0z m173 -13 c12 -7 47 -15 77 -18 47 -4 55 -8 55 -25 0 -17
6 -19 34 -17 19 2 44 10 55 17 13 9 27 11 35 6 9 -6 10 -11 2 -15 -21 -13 -11
-26 19 -26 32 0 37 -9 18 -28 -20 -20 -58 -15 -58 7 0 28 -12 32 -38 11 -27
-22 -22 -39 18 -62 17 -9 30 -24 30 -33 0 -21 17 -19 30 5 6 11 20 20 30 20
13 0 20 -7 20 -20 0 -11 -4 -20 -10 -20 -5 0 -10 -7 -10 -15 0 -8 5 -15 10
-15 17 0 12 -57 -6 -64 -27 -10 -40 -7 -70 19 -22 19 -40 25 -77 25 -27 0 -56
4 -65 9 -9 5 -41 12 -71 15 -60 6 -72 13 -51 26 12 8 12 10 -3 16 -9 3 -24 1
-32 -6 -12 -10 -18 -10 -30 0 -10 9 -15 9 -15 1 0 -6 -12 -11 -27 -11 -21 0
-24 3 -15 12 7 7 12 25 12 40 0 15 5 28 10 28 6 0 10 18 10 40 0 33 -3 40 -20
40 -11 0 -20 5 -20 10 0 6 6 10 14 10 7 0 19 7 26 15 15 18 83 20 113 3z
m-2817 -45 c13 -16 24 -31 24 -35 0 -12 60 -39 70 -33 6 3 10 1 10 -4 0 -6 -9
-11 -20 -11 -10 0 -24 -9 -30 -20 -6 -11 -19 -20 -30 -20 -10 0 -21 -4 -25
-10 -3 -5 -12 -7 -20 -3 -12 4 -15 -5 -15 -41 0 -44 -14 -83 -35 -98 -18 -13
-23 50 -9 109 8 32 14 82 14 112 0 39 5 57 18 67 23 18 21 18 48 -13z m2622
-21 c6 -20 -27 -13 -38 8 -9 17 -8 19 12 11 12 -4 24 -13 26 -19z m-4820 -39
c-10 -2 -28 -2 -40 0 -13 2 -5 4 17 4 22 1 32 -1 23 -4z m4192 -473 c10 0 1
-81 -11 -94 -15 -17 -39 15 -39 54 0 41 7 53 28 45 7 -3 17 -5 22 -5z m-4951
-48 c11 -6 -45 -52 -63 -51 -20 0 -20 1 2 9 25 11 30 45 7 54 -8 3 -15 10 -15
16 0 9 25 -1 69 -28z m-123 -57 c-7 -20 -40 -19 -57 2 -13 15 -12 16 9 10 17
-4 22 -2 18 8 -7 20 5 26 21 9 8 -8 12 -21 9 -29z m-3 -52 c-7 -2 -19 -2 -25
0 -7 3 -2 5 12 5 14 0 19 -2 13 -5z m-3 -363 c146 -5 337 -12 425 -15 279 -9
433 -18 446 -25 9 -6 5 -15 -14 -32 l-26 -24 -283 2 c-156 1 -299 4 -318 7
-35 7 -109 11 -428 23 -140 6 -178 10 -194 24 -18 14 -19 20 -9 39 11 21 17
22 74 17 34 -3 181 -10 327 -16z m2886 -542 c15 -44 8 -78 -16 -78 -31 0 -43
26 -35 76 8 56 32 57 51 2z m254 -49 c0 -21 -16 -24 -40 -9 -13 9 -12 12 4 25
22 17 36 11 36 -16z m-1422 -51 c-9 -13 -23 -24 -32 -26 -14 -3 -15 0 -5 22 7
15 20 26 32 26 18 0 18 -2 5 -22z m-73 -37 c-15 -13 -105 -24 -105 -12 0 9 21
13 95 19 11 1 15 -2 10 -7z m-395 -170 c0 -13 -26 -32 -33 -24 -14 13 -6 33
13 33 11 0 20 -4 20 -9z"/>
<path d="M1041 2524 c0 -11 3 -14 6 -6 3 7 2 16 -1 19 -3 4 -6 -2 -5 -13z"/>
<path d="M1034 2170 c4 -22 2 -30 -9 -30 -22 0 -29 -21 -11 -38 14 -15 18 -14
41 8 23 22 24 26 11 36 -9 6 -16 21 -16 33 0 11 -5 21 -11 21 -7 0 -9 -11 -5
-30z"/>
<path d="M1210 2115 c14 -8 41 -14 60 -14 33 0 32 1 -15 14 -64 18 -76 18 -45
0z"/>
<path d="M6480 2036 c0 -9 5 -16 10 -16 6 0 10 4 10 9 0 6 -4 13 -10 16 -5 3
-10 -1 -10 -9z"/>
<path d="M6508 1988 c9 -9 15 -9 24 0 9 9 7 12 -12 12 -19 0 -21 -3 -12 -12z"/>
<path d="M4910 5091 c-35 -29 -35 -29 -16 -50 11 -12 30 -21 43 -21 12 0 23
-4 23 -10 0 -17 37 -11 77 11 53 29 63 39 63 58 0 14 -10 17 -57 17 -35 0 -58
4 -61 12 -6 20 -36 13 -72 -17z"/>
<path d="M5795 5050 c-3 -5 1 -10 10 -10 9 0 13 5 10 10 -3 6 -8 10 -10 10 -2
0 -7 -4 -10 -10z"/>
<path d="M7788 5030 c-16 -16 -28 -32 -28 -37 0 -4 -21 -28 -46 -54 -48 -49
-50 -69 -8 -69 14 0 22 4 19 10 -6 10 41 60 56 60 4 0 13 16 19 35 6 19 19 39
28 44 15 9 15 12 2 25 -13 12 -18 11 -42 -14z"/>
<path d="M5470 4988 c0 -34 4 -32 31 15 8 14 6 17 -11 17 -16 0 -20 -6 -20
-32z"/>
<path d="M3485 4990 c3 -5 8 -10 11 -10 2 0 4 5 4 10 0 6 -5 10 -11 10 -5 0
-7 -4 -4 -10z"/>
<path d="M4812 4971 c16 -25 41 -28 36 -3 -2 9 -14 18 -26 20 -21 3 -22 2 -10
-17z"/>
<path d="M4885 4941 c-7 -12 31 -25 45 -16 5 3 10 10 10 16 0 12 -47 12 -55 0z"/>
<path d="M5431 4931 c-6 -10 -7 -21 -4 -25 9 -8 33 14 33 30 0 20 -18 17 -29
-5z"/>
<path d="M7 4893 c-14 -13 -6 -33 13 -33 43 0 110 -25 116 -43 3 -10 1 -82 -5
-160 -6 -78 -15 -249 -21 -379 -11 -261 -29 -677 -33 -748 -2 -55 -16 -52 -39
8 -33 88 -38 75 -38 -106 0 -157 6 -193 25 -162 12 20 34 10 37 -17 2 -19 11
-29 28 -35 22 -6 20 -7 -10 -6 -85 2 -80 8 -80 -88 l0 -87 50 6 c28 3 86 2
131 -3 66 -8 165 -11 249 -9 48 1 113 -10 120 -21 5 -7 10 -8 14 -2 7 12 349
8 391 -6 17 -5 39 -6 50 -2 11 4 50 5 86 3 51 -4 72 -2 89 10 25 17 129 13
142 -6 4 -7 11 -7 21 2 9 7 17 8 19 2 6 -16 42 -17 45 -1 4 17 -43 26 -254 52
-87 10 -103 15 -103 30 0 12 -11 19 -34 23 -23 5 -36 14 -40 28 -4 15 -8 18
-14 10 -8 -13 -45 -10 -125 13 -175 50 -301 68 -459 68 -87 0 -158 3 -158 8 0
4 6 8 13 8 9 0 8 3 -2 9 -7 5 -10 14 -7 20 4 6 11 145 17 309 9 285 12 369 40
962 6 146 12 279 13 295 1 28 -1 30 -34 29 -19 -1 -82 5 -139 12 -58 8 -105
14 -106 14 -1 0 -5 -3 -8 -7z m568 -1781 c92 -21 89 -33 -5 -21 -36 4 -126 13
-200 19 -74 6 -139 13 -145 15 -5 2 53 4 130 4 99 0 163 -5 220 -17z m145 -32
c0 -13 -30 -13 -50 0 -11 7 -7 10 18 10 17 0 32 -4 32 -10z"/>
<path d="M7608 4838 c-17 -18 -37 -32 -44 -30 -8 2 -14 -2 -14 -9 0 -7 9 -9
23 -5 12 3 34 6 50 6 20 0 27 5 27 20 0 11 7 20 15 20 20 0 19 16 -1 24 -23 9
-23 9 -56 -26z"/>
<path d="M5786 4815 c4 -8 10 -15 15 -15 4 0 6 7 3 15 -4 8 -10 15 -15 15 -4
0 -6 -7 -3 -15z"/>
<path d="M4875 4720 c3 -5 8 -10 11 -10 2 0 4 5 4 10 0 6 -5 10 -11 10 -5 0
-7 -4 -4 -10z"/>
<path d="M1037 4610 c-3 -63 -6 -126 -6 -140 0 -37 -10 -118 -21 -175 -5 -27
-12 -124 -15 -215 -4 -91 -9 -212 -11 -270 -8 -160 -5 -224 11 -209 2 3 9 77
15 164 17 257 21 308 25 315 2 3 6 86 9 185 3 99 8 230 11 290 3 61 2 124 -3
140 -7 23 -10 5 -15 -85z"/>
<path d="M4694 4642 c-6 -4 -13 -15 -17 -25 -6 -15 -13 -17 -44 -11 -36 7 -37
6 -23 -12 8 -10 21 -23 28 -27 20 -13 14 -33 -15 -46 -59 -27 -111 -67 -116
-89 -5 -28 7 -37 23 -17 7 8 18 15 25 15 8 0 26 11 42 24 15 13 55 37 88 54
39 20 66 42 78 62 17 31 15 50 -4 50 -6 0 -17 7 -25 15 -17 17 -24 18 -40 7z"/>
<path d="M7350 4624 c-41 -13 -87 -24 -102 -24 -16 0 -28 -4 -28 -10 0 -5 12
-10 26 -10 14 0 35 -5 46 -11 16 -9 35 -7 87 10 36 11 77 23 91 26 28 5 57 22
50 28 -3 2 -25 7 -50 9 -32 4 -69 -2 -120 -18z"/>
<path d="M7760 4570 c0 -5 5 -10 11 -10 5 0 7 5 4 10 -3 6 -8 10 -11 10 -2 0
-4 -4 -4 -10z"/>
<path d="M7168 4457 c-18 -7 -20 -10 -8 -17 24 -16 77 -12 84 6 3 9 6 18 6 20
0 7 -56 1 -82 -9z"/>
<path d="M7311 4422 c-6 -12 -11 -25 -11 -31 0 -12 58 -15 83 -5 17 6 11 44
-7 44 -6 0 -21 3 -33 6 -15 4 -24 0 -32 -14z"/>
<path d="M3755 4350 c-3 -5 1 -10 9 -10 9 0 16 5 16 10 0 6 -4 10 -9 10 -6 0
-13 -4 -16 -10z"/>
<path d="M7255 4281 c22 -21 75 -39 75 -25 -1 9 -69 44 -85 44 -5 0 -1 -9 10
-19z"/>
<path d="M3734 4273 c-3 -10 -10 -25 -15 -33 -19 -31 -21 -41 -9 -55 19 -23
30 -18 30 14 0 17 6 31 16 35 18 7 15 47 -3 54 -7 2 -16 -5 -19 -15z"/>
<path d="M7350 4240 c20 -13 73 -13 65 0 -3 6 -23 10 -43 10 -28 0 -33 -3 -22
-10z"/>
<path d="M7440 4221 c0 -6 5 -11 10 -11 6 0 10 -7 10 -15 0 -18 2 -18 34 -4
29 14 24 33 -5 24 -11 -4 -26 -1 -34 5 -11 9 -15 9 -15 1z"/>
<path d="M6190 4166 c0 -15 37 -32 47 -22 9 8 -17 36 -33 36 -8 0 -14 -6 -14
-14z"/>
<path d="M7620 4150 c0 -5 -16 -12 -35 -16 -40 -7 -54 -21 -31 -30 25 -10 59
4 79 31 15 21 16 25 2 25 -8 0 -15 -4 -15 -10z"/>
<path d="M6080 4134 c0 -8 5 -12 10 -9 6 3 10 10 10 16 0 5 -4 9 -10 9 -5 0
-10 -7 -10 -16z"/>
<path d="M5820 4121 l-35 -7 42 -8 c46 -8 75 0 52 15 -8 5 -16 8 -19 8 -3 -1
-21 -5 -40 -8z"/>
<path d="M6180 4075 c7 -8 16 -12 21 -9 13 8 1 24 -18 24 -13 0 -13 -3 -3 -15z"/>
<path d="M3658 4073 c6 -2 18 -2 25 0 6 3 1 5 -13 5 -14 0 -19 -2 -12 -5z"/>
<path d="M3912 4068 c3 -7 15 -15 28 -16 21 -3 22 -2 11 12 -16 19 -44 21 -39
4z"/>
<path d="M5848 4068 c-47 -12 -49 -28 -5 -28 31 0 57 14 57 32 0 9 -3 9 -52
-4z"/>
<path d="M3626 4048 c-13 -41 -12 -59 1 -78 10 -15 19 -18 26 -11 6 6 4 15 -7
27 -13 12 -14 20 -6 28 8 8 16 5 31 -13 16 -19 20 -21 25 -7 9 24 -3 46 -26
46 -11 0 -20 5 -20 10 0 14 -20 12 -24 -2z"/>
<path d="M3856 4015 c-9 -13 -16 -31 -16 -40 0 -8 -4 -15 -9 -15 -4 0 -11 -21
-14 -47 -3 -26 -10 -49 -16 -51 -6 -2 -11 -10 -11 -18 0 -17 55 -8 87 15 24
18 73 89 73 106 0 6 -10 11 -21 12 -28 2 -34 10 -38 56 -2 15 -19 6 -35 -18z"/>
<path d="M5925 4010 c-18 -8 -17 -9 8 -9 15 -1 27 4 27 9 0 12 -8 12 -35 0z"/>
<path d="M6200 3963 c0 -5 9 -19 20 -33 11 -14 20 -32 20 -40 0 -8 9 -21 20
-28 19 -12 20 -11 14 30 -4 24 -14 51 -22 61 -15 17 -52 24 -52 10z"/>
<path d="M3675 3921 c-3 -5 -1 -12 5 -16 5 -3 10 1 10 9 0 18 -6 21 -15 7z"/>
<path d="M6350 3721 c0 -10 60 -74 65 -69 12 11 -11 49 -36 62 -16 8 -29 11
-29 7z"/>
<path d="M973 3547 c-9 -18 -13 -78 -13 -172 0 -81 -4 -146 -10 -150 -5 -3 -6
-13 -3 -21 10 -25 21 -2 31 61 6 37 6 69 0 84 -5 15 -5 43 2 75 7 28 10 73 8
101 -3 48 -3 49 -15 22z"/>
<path d="M4995 3520 c3 -5 8 -10 11 -10 2 0 4 5 4 10 0 6 -5 10 -11 10 -5 0
-7 -4 -4 -10z"/>
<path d="M5000 3331 c0 -11 72 -61 88 -61 14 0 45 -17 81 -42 28 -21 41 -23
41 -5 0 12 -17 24 -60 41 -8 4 -28 15 -45 26 -16 11 -38 23 -47 26 -10 4 -18
10 -18 15 0 5 -9 9 -20 9 -11 0 -20 -4 -20 -9z"/>
<path d="M5915 3300 c-16 -25 30 -35 95 -20 3 0 -6 7 -20 15 -29 17 -66 19
-75 5z"/>
<path d="M4808 3263 c6 -2 18 -2 25 0 6 3 1 5 -13 5 -14 0 -19 -2 -12 -5z"/>
<path d="M6990 3242 c0 -11 55 -42 74 -42 9 0 41 -14 72 -31 91 -52 80 -11
-14 51 -33 22 -57 30 -89 30 -24 0 -43 -4 -43 -8z"/>
<path d="M5225 3200 c3 -5 11 -10 16 -10 6 0 7 5 4 10 -3 6 -11 10 -16 10 -6
0 -7 -4 -4 -10z"/>
<path d="M5775 3200 c-5 -8 4 -40 11 -40 2 0 13 5 23 12 25 15 51 -4 44 -32
-4 -16 0 -20 20 -20 65 0 101 46 56 70 -25 14 -147 21 -154 10z"/>
<path d="M5728 3193 c7 -3 16 -2 19 1 4 3 -2 6 -13 5 -11 0 -14 -3 -6 -6z"/>
<path d="M6830 3133 c0 -16 24 -33 47 -33 27 0 31 15 6 23 -10 2 -26 8 -35 12
-10 4 -18 3 -18 -2z"/>
<path d="M5440 3082 c0 -6 -8 -13 -17 -15 -16 -4 -16 -5 -1 -6 9 0 19 -10 23
-20 6 -19 55 -36 55 -19 0 5 -13 23 -30 40 -16 16 -30 25 -30 20z"/>
<path d="M5640 3070 c0 -5 5 -10 10 -10 6 0 10 5 10 10 0 6 -4 10 -10 10 -5 0
-10 -4 -10 -10z"/>
<path d="M6907 3022 c-15 -15 -27 -33 -27 -38 0 -15 84 -56 89 -43 5 16 -8 74
-22 93 -11 16 -15 15 -40 -12z"/>
<path d="M4565 2990 c3 -5 15 -10 26 -10 10 0 19 5 19 10 0 6 -12 10 -26 10
-14 0 -23 -4 -19 -10z"/>
<path d="M1240 2980 c0 -5 5 -10 10 -10 6 0 10 5 10 10 0 6 -4 10 -10 10 -5 0
-10 -4 -10 -10z"/>
<path d="M5567 2953 c-4 -3 -7 -13 -7 -22 1 -13 3 -13 11 2 11 19 8 33 -4 20z"/>
<path d="M4690 2917 c0 -14 58 -37 100 -40 14 -1 31 -7 38 -14 7 -7 25 -16 40
-19 35 -7 96 -32 132 -53 30 -17 84 -31 92 -23 17 17 -35 46 -122 69 -49 12
-130 39 -178 58 -101 40 -102 40 -102 22z"/>
<path d="M5280 2862 c1 -11 90 -50 95 -42 2 4 -6 12 -18 17 -49 23 -77 32 -77
25z"/>
<path d="M7421 2808 c-16 -6 -21 -12 -14 -19 13 -13 54 3 45 17 -5 8 -15 8
-31 2z"/>
<path d="M7410 2753 c1 -20 18 -33 35 -27 17 7 17 8 -1 21 -20 14 -34 17 -34
6z"/>
<path d="M1 2184 l-1 -521 133 -9 c154 -10 164 -10 195 0 21 7 23 5 17 -13 -5
-17 -3 -20 10 -14 10 3 29 17 43 30 25 23 25 24 6 38 -16 11 -17 16 -6 27 11
11 16 10 27 -5 13 -18 14 -18 27 2 7 12 18 21 25 21 7 0 13 6 13 13 0 8 9 24
20 37 25 29 25 36 2 42 -24 7 -34 74 -27 177 3 42 7 118 9 169 l3 93 -41 47
c-23 26 -52 60 -66 75 -37 43 -50 47 -172 53 -160 7 -156 5 -163 62 -3 26 -17
81 -30 122 l-24 75 0 -521z m499 -368 c0 -17 -14 -29 -23 -20 -8 8 3 34 14 34
5 0 9 -6 9 -14z"/>
<path d="M271 2636 c-12 -18 -21 -39 -21 -45 0 -6 30 -26 68 -43 121 -58 237
-196 272 -327 12 -47 37 -54 70 -21 33 33 21 83 -49 198 -41 68 -179 212 -203
212 -6 0 -30 14 -55 30 -24 17 -48 30 -53 30 -4 0 -18 -15 -29 -34z"/>
<path d="M6305 2630 c-18 -7 -18 -9 -3 -15 22 -9 54 -3 51 10 -3 13 -24 16
-48 5z"/>
<path d="M581 2561 c-8 -5 -11 -16 -8 -25 8 -19 16 -20 41 -1 30 23 1 47 -33
26z"/>
<path d="M7240 2490 c0 -5 5 -10 10 -10 6 0 10 5 10 10 0 6 -4 10 -10 10 -5 0
-10 -4 -10 -10z"/>
<path d="M3507 2355 c-11 -77 -9 -115 7 -115 8 0 17 7 20 16 10 27 6 98 -8
123 -12 22 -13 21 -19 -24z"/>
<path d="M7162 2358 c-18 -18 -15 -68 4 -75 9 -3 20 0 25 8 22 35 -3 93 -29
67z"/>
<path d="M6033 2334 c-9 -23 11 -38 26 -20 13 16 7 36 -10 36 -5 0 -12 -7 -16
-16z"/>
<path d="M3764 2313 c-3 -10 -9 -25 -14 -34 -6 -12 0 -25 26 -50 l34 -33 0 30
c0 40 -19 104 -31 104 -5 0 -12 -8 -15 -17z"/>
<path d="M3685 2120 c3 -5 10 -10 16 -10 5 0 9 5 9 10 0 6 -7 10 -16 10 -8 0
-12 -4 -9 -10z"/>
<path d="M3981 1929 c-6 -18 -11 -41 -11 -52 0 -11 -12 -36 -27 -55 -31 -41
-36 -72 -14 -89 14 -10 14 -12 1 -16 -57 -17 -75 -25 -73 -35 2 -6 -6 -14 -17
-17 -28 -9 -25 -24 8 -31 51 -11 53 -13 50 -46 -2 -24 1 -33 12 -33 25 0 42
53 44 139 2 44 8 91 14 103 7 12 12 30 12 41 0 11 9 22 20 25 11 3 25 17 31
31 10 22 9 29 -6 46 -25 27 -31 25 -44 -11z"/>
<path d="M0 1516 c0 -19 4 -24 15 -19 18 6 16 34 -2 41 -8 2 -13 -6 -13 -22z"/>
<path d="M3865 1531 c-6 -5 -21 -11 -35 -13 -37 -5 -37 -33 0 -48 27 -11 33
-10 50 5 11 10 20 29 20 42 0 23 -18 31 -35 14z"/>
<path d="M160 1470 c0 -5 5 -10 11 -10 5 0 7 5 4 10 -3 6 -8 10 -11 10 -2 0
-4 -4 -4 -10z"/>
<path d="M3719 1270 c-18 -10 -80 -133 -99 -195 -17 -54 -42 -109 -54 -117 -6
-4 -4 -9 6 -13 41 -16 107 90 148 238 23 86 23 100 -1 87z"/>
<path d="M3927 1251 c-15 -16 -27 -37 -27 -46 0 -9 -13 -49 -28 -88 -43 -107
-54 -139 -59 -169 -3 -15 -11 -33 -19 -39 -8 -6 -14 -19 -14 -29 0 -13 10 -17
43 -18 l42 -2 13 68 c12 65 74 269 93 304 26 51 -2 63 -44 19z"/>
<path d="M1916 303 c3 -21 11 -44 17 -52 6 -7 16 -21 22 -30 55 -92 79 -111
113 -92 11 6 9 13 -14 34 -15 15 -25 29 -21 33 4 4 -11 27 -33 50 -22 24 -40
47 -40 51 0 5 -12 16 -26 26 l-25 19 7 -39z"/>
<path d="M1877 293 c-4 -3 -7 -22 -7 -42 0 -39 -21 -107 -47 -157 -20 -39 -12
-64 23 -64 19 0 25 -4 20 -15 -4 -11 1 -15 19 -15 24 0 25 2 19 40 -5 33 -4
40 10 40 10 0 16 -8 16 -21 0 -46 17 -59 80 -59 33 0 60 2 60 4 0 18 -50 91
-67 99 -22 10 -83 93 -83 113 0 5 -5 26 -11 47 -10 36 -18 44 -32 30z m43
-188 c0 -8 -4 -15 -10 -15 -5 0 -7 7 -4 15 4 8 8 15 10 15 2 0 4 -7 4 -15z"/>
<path d="M2120 134 c0 -9 7 -14 17 -12 25 5 28 28 4 28 -12 0 -21 -6 -21 -16z"/>
<path d="M2060 68 c0 -7 12 -25 25 -40 24 -28 45 -36 45 -18 0 6 -7 10 -15 10
-16 0 -36 39 -28 53 2 4 -3 7 -11 7 -9 0 -16 -6 -16 -12z"/>
</g>
</svg>
